<svg xmlns="http://www.w3.org/2000/svg" viewBox="0 0 168 156">
    <g stroke="none" stroke-width="1" fill="none" fill-rule="evenodd">
        <g transform="translate(0.000000, 4.000000)">
            <path d="M163.576,74.303 C163.576,114.823 130.726,147.662 90.21,147.662 C49.698,147.662 16.849,114.823 16.849,74.303 C16.849,33.787 49.698,0.936 90.21,0.936 C130.726,0.936 163.576,33.787 163.576,74.303" id="Fill-1" fill="#88191F"></path>
            <g id="Group-6">
                <path d="M163.576,74.303 C163.576,114.823 130.726,147.662 90.21,147.662 C49.698,147.662 16.849,114.823 16.849,74.303 C16.849,33.787 49.698,0.936 90.21,0.936 C130.726,0.936 163.576,33.787 163.576,74.303 Z" id="Stroke-2" stroke="#88191F" stroke-width="8.142"></path>
                <path d="M163.576,74.303 C163.576,114.823 130.726,147.662 90.21,147.662 C49.698,147.662 16.849,114.823 16.849,74.303 C16.849,33.787 49.698,0.936 90.21,0.936 C130.726,0.936 163.576,33.787 163.576,74.303" id="Fill-4" fill="#FFFFFF"></path>
                <path d="M122.316,57.297 C119.269,55.217 116.896,53.092 109.535,50.541 C104.845,48.922 91.943,45.112 80.814,46.444 C67.396,48.053 66.543,47.985 55.619,52.219 C52.031,53.608 48.594,56.354 45.424,59.557 C51.616,40.741 69.319,27.147 90.21,27.147 C100.937,27.147 110.82,30.733 118.738,36.764 L112.539,37.815 L115.394,42.487 L115.05,50.155 L117.609,49.83 L117.863,53.162 L121.792,52.778 L121.875,54.205 C122.312,54.356 122.746,54.514 123.169,54.662 C124.421,55.112 125.488,55.381 125.72,55.459 C126.068,55.225 128.386,53.707 129.798,52.744 L129.724,48.58 C134.554,55.979 137.367,64.809 137.367,74.303 C134.525,67.637 125.355,59.381 122.316,57.297 Z M73.229,118.289 L115.914,93.787 C116.085,100.901 116.796,108.748 117.136,113.18 C115.269,114.451 112.56,115.83 112.56,115.83 C105.914,119.412 98.3,121.451 90.21,121.451 C84.226,121.451 78.503,120.33 73.229,118.289 Z M90.21,2.604 C50.619,2.604 18.519,34.703 18.519,74.303 C18.519,78.317 18.854,82.252 19.49,86.088 C18.386,86.877 17.12,87.766 15.579,88.842 C8.724,93.639 5.14,97.354 2.149,103.276 C0.479,106.58 -0.186,110.065 0.044,113.502 C0.36,118.213 10.485,123.444 18.922,126.783 C26.973,129.971 36.937,133.832 40.978,132.643 C42.837,132.096 44.118,131.158 45.039,129.967 C57.372,139.987 73.094,145.99 90.21,145.99 C129.812,145.99 161.91,113.895 161.91,74.303 C161.91,34.703 129.812,2.604 90.21,2.604 L90.21,2.604 Z" id="Fill-5" fill="#1A1918"></path>
            </g>
            <path d="M75.917,135.057 L75.999,136.688 C76.025,137.123 76.014,137.354 75.955,137.58 C75.871,137.914 75.734,138.033 75.294,138.227 L78.891,139.166 C78.455,138.557 78.299,138.037 78.203,136.842 L77.624,129.504 C77.56,128.637 77.548,128.416 77.62,128.158 C77.674,127.949 77.772,127.842 78.112,127.641 L74.475,126.694 C74.625,126.936 74.659,127.131 74.596,127.352 C74.521,127.653 74.276,128.151 73.983,128.553 L69.607,134.832 C68.946,135.803 68.685,136.024 67.917,136.297 L71.524,137.24 C71.198,136.934 71.11,136.74 71.178,136.483 L71.185,136.455 C71.264,136.217 71.458,135.811 71.626,135.541 L72.501,134.166 L75.917,135.057 Z M75.871,133.412 L73.36,132.756 L75.715,129.004 L75.871,133.412 L75.871,133.412 Z" id="Fill-7" fill="#FFFFFF"></path>
            <path d="M75.917,135.057 L75.999,136.688 C76.025,137.123 76.014,137.354 75.955,137.58 C75.871,137.914 75.734,138.033 75.294,138.227 L78.891,139.166 C78.455,138.557 78.299,138.037 78.203,136.842 L77.624,129.504 C77.56,128.637 77.548,128.416 77.62,128.158 C77.674,127.949 77.772,127.842 78.112,127.641 L74.475,126.694 C74.625,126.936 74.659,127.131 74.596,127.352 C74.521,127.653 74.276,128.151 73.983,128.553 L69.607,134.832 C68.946,135.803 68.685,136.024 67.917,136.297 L71.524,137.24 C71.198,136.934 71.11,136.74 71.178,136.483 L71.185,136.455 C71.264,136.217 71.458,135.811 71.626,135.541 L72.501,134.166 L75.917,135.057 Z M75.871,133.412 L73.36,132.756 L75.715,129.004 L75.871,133.412 Z" id="Stroke-8" stroke="#FFFFFF" stroke-width="0.223"></path>
            <path d="M83.589,137.123 C83.393,138.787 83.429,138.99 84.116,139.615 L80.352,139.17 C81.145,138.729 81.234,138.532 81.427,136.885 L82.242,130.01 L81.461,129.916 C80.203,129.768 79.657,129.938 78.87,130.657 L79.497,128.045 L87.531,128.994 L87.527,131.68 C86.949,130.797 86.439,130.508 85.179,130.362 L84.4,130.262 L83.589,137.123" id="Fill-9" fill="#FFFFFF"></path>
            <path d="M83.589,137.123 C83.393,138.787 83.429,138.99 84.116,139.615 L80.352,139.17 C81.145,138.729 81.234,138.532 81.427,136.885 L82.242,130.01 L81.461,129.916 C80.203,129.768 79.657,129.938 78.87,130.657 L79.497,128.045 L87.531,128.994 L87.527,131.68 C86.949,130.797 86.439,130.508 85.179,130.362 L84.4,130.262 L83.589,137.123 Z" id="Stroke-10" stroke="#FFFFFF" stroke-width="0.223"></path>
            <path d="M94.398,137.301 C94.484,138.977 94.558,139.17 95.339,139.67 L91.543,139.869 C92.259,139.287 92.312,139.088 92.226,137.43 L91.871,130.512 L91.089,130.553 C89.82,130.619 89.312,130.877 88.664,131.715 L88.835,129.043 L96.914,128.627 L97.363,131.27 C96.648,130.5 96.093,130.295 94.831,130.365 L94.04,130.408 L94.398,137.301" id="Fill-11" fill="#FFFFFF"></path>
            <path d="M94.398,137.301 C94.484,138.977 94.558,139.17 95.339,139.67 L91.543,139.869 C92.259,139.287 92.312,139.088 92.226,137.43 L91.871,130.512 L91.089,130.553 C89.82,130.619 89.312,130.877 88.664,131.715 L88.835,129.043 L96.914,128.627 L97.363,131.27 C96.648,130.5 96.093,130.295 94.831,130.365 L94.04,130.408 L94.398,137.301 Z" id="Stroke-12" stroke="#FFFFFF" stroke-width="0.223"></path>
            <path d="M104.902,129.467 C104.41,128.867 104.093,128.783 103.007,129.004 L100.736,129.467 L101.281,132.084 L103.433,131.639 C104.359,131.459 104.638,131.285 104.798,130.768 L105.371,133.537 C104.783,133.037 104.589,132.992 103.751,133.166 L101.591,133.612 L102.308,137.104 L104.976,136.557 C105.921,136.358 106.181,136.174 106.546,135.401 L106.773,137.799 L99.738,139.252 C100.345,138.569 100.376,138.362 100.039,136.737 L98.796,130.713 C98.464,129.102 98.355,128.905 97.507,128.53 L104.173,127.151 L104.902,129.467" id="Fill-13" fill="#FFFFFF"></path>
            <path d="M104.902,129.467 C104.41,128.867 104.093,128.783 103.007,129.004 L100.736,129.467 L101.281,132.084 L103.433,131.639 C104.359,131.459 104.638,131.285 104.798,130.768 L105.371,133.537 C104.783,133.037 104.589,132.992 103.751,133.166 L101.591,133.612 L102.308,137.104 L104.976,136.557 C105.921,136.358 106.181,136.174 106.546,135.401 L106.773,137.799 L99.738,139.252 C100.345,138.569 100.376,138.362 100.039,136.737 L98.796,130.713 C98.464,129.102 98.355,128.905 97.507,128.53 L104.173,127.151 L104.902,129.467 Z" id="Stroke-14" stroke="#FFFFFF" stroke-width="0.223"></path>
            <path d="M115.007,131.08 L113.265,126.674 C112.687,125.213 112.351,124.813 111.48,124.553 L114.886,123.213 C114.32,123.963 114.341,124.328 114.996,125.998 L117.25,131.701 C117.707,132.862 118.183,133.344 118.912,133.393 L116.156,134.483 L109.031,129.147 L111.011,134.166 C111.457,135.293 111.798,135.658 112.609,135.879 L109.292,137.194 C109.714,136.514 109.707,135.918 109.285,134.846 L106.855,128.698 C106.455,127.674 106.019,127.225 105.269,127.012 L108.187,125.856 L115.007,131.08" id="Fill-15" fill="#FFFFFF"></path>
            <path d="M115.007,131.08 L113.265,126.674 C112.687,125.213 112.351,124.813 111.48,124.553 L114.886,123.213 C114.32,123.963 114.341,124.328 114.996,125.998 L117.25,131.701 C117.707,132.862 118.183,133.344 118.912,133.393 L116.156,134.483 L109.031,129.147 L111.011,134.166 C111.457,135.293 111.798,135.658 112.609,135.879 L109.292,137.194 C109.714,136.514 109.707,135.918 109.285,134.846 L106.855,128.698 C106.455,127.674 106.019,127.225 105.269,127.012 L108.187,125.856 L115.007,131.08 Z" id="Stroke-16" stroke="#FFFFFF" stroke-width="0.223"></path>
            <path d="M115.386,122.889 C116.312,122.944 116.476,123.088 117.359,124.477 L120.656,129.67 C121.546,131.069 121.599,131.27 121.261,132.127 L124.539,130.049 C126.244,128.967 126.945,128.108 127.218,126.756 C127.47,125.44 127.148,124.186 126.113,122.565 C125.095,120.951 124.14,120.155 122.796,119.78 C121.519,119.424 120.382,119.721 118.667,120.807 L115.386,122.889 Z M122.929,129.26 L118.703,122.596 L119.46,122.112 C121.265,120.971 122.619,121.473 124.117,123.826 C125.625,126.209 125.496,127.631 123.695,128.776 L122.929,129.26 L122.929,129.26 Z" id="Fill-17" fill="#FFFFFF"></path>
            <path d="M115.386,122.889 C116.312,122.944 116.476,123.088 117.359,124.477 L120.656,129.67 C121.546,131.069 121.599,131.27 121.261,132.127 L124.539,130.049 C126.244,128.967 126.945,128.108 127.218,126.756 C127.47,125.44 127.148,124.186 126.113,122.565 C125.095,120.951 124.14,120.155 122.796,119.78 C121.519,119.424 120.382,119.721 118.667,120.807 L115.386,122.889 Z M122.929,129.26 L118.703,122.596 L119.46,122.112 C121.265,120.971 122.619,121.473 124.117,123.826 C125.625,126.209 125.496,127.631 123.695,128.776 L122.929,129.26 Z" id="Stroke-18" stroke="#FFFFFF" stroke-width="0.223"></path>
            <path d="M132.74,119.729 L134.148,120.565 C134.517,120.783 134.707,120.928 134.855,121.096 C135.089,121.36 135.111,121.537 135.023,122.006 L137.8,119.541 C137.058,119.565 136.539,119.412 135.492,118.823 L129.066,115.233 C128.308,114.803 128.113,114.682 127.943,114.49 C127.8,114.334 127.765,114.19 127.789,113.787 L124.976,116.293 C125.265,116.301 125.445,116.381 125.597,116.553 C125.806,116.782 126.082,117.268 126.246,117.733 L129.05,124.862 C129.48,125.944 129.521,126.287 129.324,127.076 L132.109,124.592 C131.681,124.696 131.464,124.666 131.292,124.469 L131.275,124.442 C131.115,124.244 130.888,123.858 130.761,123.573 L130.093,122.076 L132.74,119.729 Z M131.351,118.854 L129.408,120.576 L127.597,116.541 L131.351,118.854 L131.351,118.854 Z" id="Fill-19" fill="#FFFFFF"></path>
            <path d="M132.74,119.729 L134.148,120.565 C134.517,120.783 134.707,120.928 134.855,121.096 C135.089,121.36 135.111,121.537 135.023,122.006 L137.8,119.541 C137.058,119.565 136.539,119.412 135.492,118.823 L129.066,115.233 C128.308,114.803 128.113,114.682 127.943,114.49 C127.8,114.334 127.765,114.19 127.789,113.787 L124.976,116.293 C125.265,116.301 125.445,116.381 125.597,116.553 C125.806,116.782 126.082,117.268 126.246,117.733 L129.05,124.862 C129.48,125.944 129.521,126.287 129.324,127.076 L132.109,124.592 C131.681,124.696 131.464,124.666 131.292,124.469 L131.275,124.442 C131.115,124.244 130.888,123.858 130.761,123.573 L130.093,122.076 L132.74,119.729 Z M131.351,118.854 L129.408,120.576 L127.597,116.541 L131.351,118.854 Z" id="Stroke-20" stroke="#FFFFFF" stroke-width="0.223"></path>
            <path d="M140.072,110.928 L136.365,107.983 C135.128,107.004 134.64,106.823 133.751,107.045 L136.035,104.172 C135.916,105.108 136.119,105.416 137.519,106.533 L142.32,110.34 C143.296,111.119 143.953,111.299 144.609,110.979 L142.769,113.295 L133.933,112.24 L138.156,115.59 C139.105,116.35 139.578,116.494 140.398,116.287 L138.175,119.078 C138.203,118.278 137.9,117.768 136.998,117.051 L131.82,112.94 C130.953,112.252 130.367,112.076 129.601,112.272 L131.556,109.815 L140.072,110.928" id="Fill-21" fill="#FFFFFF"></path>
            <path d="M140.072,110.928 L136.365,107.983 C135.128,107.004 134.64,106.823 133.751,107.045 L136.035,104.172 C135.916,105.108 136.119,105.416 137.519,106.533 L142.32,110.34 C143.296,111.119 143.953,111.299 144.609,110.979 L142.769,113.295 L133.933,112.24 L138.156,115.59 C139.105,116.35 139.578,116.494 140.398,116.287 L138.175,119.078 C138.203,118.278 137.9,117.768 136.998,117.051 L131.82,112.94 C130.953,112.252 130.367,112.076 129.601,112.272 L131.556,109.815 L140.072,110.928 Z" id="Stroke-22" stroke="#FFFFFF" stroke-width="0.223"></path>
            <path d="M146.181,103.201 C147.66,103.998 147.859,104.033 148.699,103.621 L146.894,106.971 C146.769,106.057 146.632,105.912 145.171,105.127 L139.07,101.846 L138.703,102.543 C138.101,103.655 138.05,104.231 138.433,105.219 L136.238,103.682 L140.062,96.557 L142.556,97.549 C141.527,97.764 141.066,98.127 140.47,99.244 L140.095,99.936 L146.181,103.201" id="Fill-23" fill="#FFFFFF"></path>
            <path d="M146.181,103.201 C147.66,103.998 147.859,104.033 148.699,103.621 L146.894,106.971 C146.769,106.057 146.632,105.912 145.171,105.127 L139.07,101.846 L138.703,102.543 C138.101,103.655 138.05,104.231 138.433,105.219 L136.238,103.682 L140.062,96.557 L142.556,97.549 C141.527,97.764 141.066,98.127 140.47,99.244 L140.095,99.936 L146.181,103.201 Z" id="Stroke-24" stroke="#FFFFFF" stroke-width="0.223"></path>
            <path d="M145.363,91.075 C144.013,91.444 143.332,91.971 142.976,92.963 C142.687,93.768 142.914,94.412 143.552,94.631 C144.099,94.83 144.621,94.629 145.363,93.953 L146.144,93.238 C146.796,92.627 147.359,92.252 147.871,92.069 C148.55,91.823 149.339,91.823 150.074,92.092 C151.921,92.744 152.648,94.522 151.931,96.549 C151.734,97.096 151.291,97.946 150.984,98.416 C150.851,98.59 150.759,98.752 150.734,98.834 C150.677,98.985 150.707,99.096 150.832,99.283 L147.386,98.323 C148.07,98.123 148.281,98.039 148.75,97.791 C149.498,97.397 150.066,96.776 150.32,96.061 C150.628,95.217 150.351,94.455 149.65,94.207 C149.078,94.02 148.585,94.17 147.761,94.871 L146.941,95.561 C146.003,96.346 145.679,96.557 145.156,96.754 C144.48,96.987 143.765,96.983 143.066,96.729 C141.4,96.137 140.617,94.346 141.259,92.549 C141.384,92.205 141.603,91.78 141.816,91.432 L142.031,91.075 C142.103,90.961 142.166,90.842 142.199,90.733 C142.269,90.53 142.248,90.455 142.126,90.116 L145.363,91.075" id="Fill-25" fill="#FFFFFF"></path>
            <path d="M145.363,91.075 C144.013,91.444 143.332,91.971 142.976,92.963 C142.687,93.768 142.914,94.412 143.552,94.631 C144.099,94.83 144.621,94.629 145.363,93.953 L146.144,93.238 C146.796,92.627 147.359,92.252 147.871,92.069 C148.55,91.823 149.339,91.823 150.074,92.092 C151.921,92.744 152.648,94.522 151.931,96.549 C151.734,97.096 151.291,97.946 150.984,98.416 C150.851,98.59 150.759,98.752 150.734,98.834 C150.677,98.985 150.707,99.096 150.832,99.283 L147.386,98.323 C148.07,98.123 148.281,98.039 148.75,97.791 C149.498,97.397 150.066,96.776 150.32,96.061 C150.628,95.217 150.351,94.455 149.65,94.207 C149.078,94.02 148.585,94.17 147.761,94.871 L146.941,95.561 C146.003,96.346 145.679,96.557 145.156,96.754 C144.48,96.987 143.765,96.983 143.066,96.729 C141.4,96.137 140.617,94.346 141.259,92.549 C141.384,92.205 141.603,91.78 141.816,91.432 L142.031,91.075 C142.103,90.961 142.166,90.842 142.199,90.733 C142.269,90.53 142.248,90.455 142.126,90.116 L145.363,91.075 Z" id="Stroke-26" stroke="#FFFFFF" stroke-width="0.223"></path>
            <path d="M28.573,66.909 C27.575,67.362 27.137,67.977 27.078,69.008 C26.967,70.748 28.333,71.852 30.825,72.01 C33.386,72.17 34.844,71.244 34.955,69.399 C35.025,68.33 34.627,67.613 33.627,66.994 L36.974,67.432 C36.725,67.713 36.667,67.826 36.658,68.065 C36.65,68.17 36.641,68.311 36.664,68.485 C36.686,69.16 36.694,69.576 36.667,69.922 C36.482,72.916 34.183,74.698 30.727,74.473 C27.144,74.254 25.116,72.205 25.314,69.004 C25.348,68.522 25.392,68.264 25.491,67.752 C25.535,67.6 25.546,67.461 25.548,67.36 C25.559,67.166 25.525,67.01 25.374,66.709 L28.573,66.909" id="Fill-27" fill="#FFFFFF"></path>
            <path d="M28.573,66.909 C27.575,67.362 27.137,67.977 27.078,69.008 C26.967,70.748 28.333,71.852 30.825,72.01 C33.386,72.17 34.844,71.244 34.955,69.399 C35.025,68.33 34.627,67.613 33.627,66.994 L36.974,67.432 C36.725,67.713 36.667,67.826 36.658,68.065 C36.65,68.17 36.641,68.311 36.664,68.485 C36.686,69.16 36.694,69.576 36.667,69.922 C36.482,72.916 34.183,74.698 30.727,74.473 C27.144,74.254 25.116,72.205 25.314,69.004 C25.348,68.522 25.392,68.264 25.491,67.752 C25.535,67.6 25.546,67.461 25.548,67.36 C25.559,67.166 25.525,67.01 25.374,66.709 L28.573,66.909 Z" id="Stroke-28" stroke="#FFFFFF" stroke-width="0.223"></path>
            <path d="M30.248,56.467 C29.493,56.678 29.277,56.948 29.006,58.069 L28.447,60.438 L31.036,61.057 L31.573,58.805 C31.82,57.85 31.779,57.502 31.377,57.127 L34.132,57.78 C33.423,58.127 33.299,58.291 33.092,59.162 L32.555,61.412 L36.031,62.244 L36.683,59.469 C36.926,58.479 36.865,58.147 36.335,57.467 L38.593,58.285 L36.845,65.623 C36.494,64.744 36.323,64.631 34.703,64.248 L28.724,62.83 C27.127,62.448 26.899,62.467 26.191,63.116 L27.842,56.162 L30.248,56.467" id="Fill-29" fill="#FFFFFF"></path>
            <path d="M30.248,56.467 C29.493,56.678 29.277,56.948 29.006,58.069 L28.447,60.438 L31.036,61.057 L31.573,58.805 C31.82,57.85 31.779,57.502 31.377,57.127 L34.132,57.78 C33.423,58.127 33.299,58.291 33.092,59.162 L32.555,61.412 L36.031,62.244 L36.683,59.469 C36.926,58.479 36.865,58.147 36.335,57.467 L38.593,58.285 L36.845,65.623 C36.494,64.744 36.323,64.631 34.703,64.248 L28.724,62.83 C27.127,62.448 26.899,62.467 26.191,63.116 L27.842,56.162 L30.248,56.467 Z" id="Stroke-30" stroke="#FFFFFF" stroke-width="0.223"></path>
            <path d="M43.82,42.379 C45.215,43.303 45.42,43.358 46.31,42.998 L44.104,46.319 C44.081,45.371 43.956,45.201 42.579,44.285 L36.805,40.463 L36.349,41.151 C35.613,42.254 35.496,42.846 35.771,43.897 L33.73,42.151 L38.424,35.08 L40.826,36.272 C39.765,36.416 39.259,36.764 38.522,37.873 L38.067,38.563 L43.82,42.379" id="Fill-31" fill="#FFFFFF"></path>
            <path d="M43.82,42.379 C45.215,43.303 45.42,43.358 46.31,42.998 L44.104,46.319 C44.081,45.371 43.956,45.201 42.579,44.285 L36.805,40.463 L36.349,41.151 C35.613,42.254 35.496,42.846 35.771,43.897 L33.73,42.151 L38.424,35.08 L40.826,36.272 C39.765,36.416 39.259,36.764 38.522,37.873 L38.067,38.563 L43.82,42.379 Z" id="Stroke-32" stroke="#FFFFFF" stroke-width="0.223"></path>
            <path d="M48.048,40.701 C48.148,39.756 48.054,39.565 46.802,38.479 L42.146,34.455 C40.901,33.387 40.686,33.307 39.765,33.541 L42.359,30.534 C42.252,31.494 42.373,31.688 43.614,32.76 L48.255,36.77 C49.519,37.866 49.716,37.946 50.646,37.696 L48.048,40.701" id="Fill-33" fill="#FFFFFF"></path>
            <path d="M48.048,40.701 C48.148,39.756 48.054,39.565 46.802,38.479 L42.146,34.455 C40.901,33.387 40.686,33.307 39.765,33.541 L42.359,30.534 C42.252,31.494 42.373,31.688 43.614,32.76 L48.255,36.77 C49.519,37.866 49.716,37.946 50.646,37.696 L48.048,40.701 Z" id="Stroke-34" stroke="#FFFFFF" stroke-width="0.223"></path>
            <path d="M51.848,24.998 C50.922,24.828 50.659,24.905 49.745,25.711 L48.022,27.213 L49.896,29.35 L51.589,27.873 C52.338,27.238 52.497,26.92 52.418,26.307 L54.294,28.448 C53.639,28.303 53.316,28.409 52.634,29.012 L50.922,30.512 L52.602,32.442 C53.707,33.703 53.894,33.807 54.848,33.694 L51.864,36.305 C52.092,35.387 52.021,35.182 50.932,33.932 L46.876,29.309 C45.794,28.073 45.588,27.969 44.645,28.073 L49.994,23.385 L51.848,24.998" id="Fill-35" fill="#FFFFFF"></path>
            <path d="M51.848,24.998 C50.922,24.828 50.659,24.905 49.745,25.711 L48.022,27.213 L49.896,29.35 L51.589,27.873 C52.338,27.238 52.497,26.92 52.418,26.307 L54.294,28.448 C53.639,28.303 53.316,28.409 52.634,29.012 L50.922,30.512 L52.602,32.442 C53.707,33.703 53.894,33.807 54.848,33.694 L51.864,36.305 C52.092,35.387 52.021,35.182 50.932,33.932 L46.876,29.309 C45.794,28.073 45.588,27.969 44.645,28.073 L49.994,23.385 L51.848,24.998 Z" id="Stroke-36" stroke="#FFFFFF" stroke-width="0.223"></path>
            <path d="M58.401,30.819 C58.745,29.936 58.704,29.725 57.779,28.348 L54.344,23.248 C53.425,21.883 53.234,21.756 52.282,21.737 L55.581,19.518 C55.226,20.412 55.282,20.631 56.202,21.994 L59.626,27.08 C60.568,28.471 60.742,28.598 61.696,28.602 L58.401,30.819" id="Fill-37" fill="#FFFFFF"></path>
            <path d="M58.401,30.819 C58.745,29.936 58.704,29.725 57.779,28.348 L54.344,23.248 C53.425,21.883 53.234,21.756 52.282,21.737 L55.581,19.518 C55.226,20.412 55.282,20.631 56.202,21.994 L59.626,27.08 C60.568,28.471 60.742,28.598 61.696,28.602 L58.401,30.819 Z" id="Stroke-38" stroke="#FFFFFF" stroke-width="0.223"></path>
            <path d="M65.808,16.823 C65.164,16.373 64.822,16.375 63.783,16.885 L61.598,17.953 L62.77,20.348 L64.849,19.326 C65.741,18.909 65.984,18.666 66.021,18.108 L67.265,20.653 C66.549,20.321 66.343,20.334 65.537,20.731 L63.454,21.748 L65.028,24.955 L67.588,23.698 C68.503,23.252 68.721,22.998 68.901,22.159 L69.704,24.416 L62.929,27.738 C63.393,26.912 63.363,26.701 62.633,25.211 L59.935,19.686 C59.205,18.209 59.055,18.053 58.099,17.912 L64.516,14.766 L65.808,16.823" id="Fill-39" fill="#FFFFFF"></path>
            <path d="M65.808,16.823 C65.164,16.373 64.822,16.375 63.783,16.885 L61.598,17.953 L62.77,20.348 L64.849,19.326 C65.741,18.909 65.984,18.666 66.021,18.108 L67.265,20.653 C66.549,20.321 66.343,20.334 65.537,20.731 L63.454,21.748 L65.028,24.955 L67.588,23.698 C68.503,23.252 68.721,22.998 68.901,22.159 L69.704,24.416 L62.929,27.738 C63.393,26.912 63.363,26.701 62.633,25.211 L59.935,19.686 C59.205,18.209 59.055,18.053 58.099,17.912 L64.516,14.766 L65.808,16.823 Z" id="Stroke-40" stroke="#FFFFFF" stroke-width="0.223"></path>
            <path d="M67.828,13.35 C68.739,13.655 68.867,13.846 69.314,15.428 L70.985,21.344 C71.432,22.94 71.426,23.151 70.815,23.885 L74.74,22.778 C76.781,22.201 77.757,21.569 78.449,20.33 C79.11,19.135 79.178,17.842 78.656,15.987 C78.139,14.155 77.432,13.119 76.206,12.389 C75.042,11.692 73.81,11.66 71.77,12.244 L67.828,13.35 Z M73.382,21.573 L71.237,13.981 L72.149,13.721 C74.31,13.112 75.498,13.973 76.262,16.662 C77.025,19.366 76.456,20.705 74.294,21.319 L73.382,21.573 L73.382,21.573 Z" id="Fill-41" fill="#FFFFFF"></path>
            <path d="M67.828,13.35 C68.739,13.655 68.867,13.846 69.314,15.428 L70.985,21.344 C71.432,22.94 71.426,23.151 70.815,23.885 L74.74,22.778 C76.781,22.201 77.757,21.569 78.449,20.33 C79.11,19.135 79.178,17.842 78.656,15.987 C78.139,14.155 77.432,13.119 76.206,12.389 C75.042,11.692 73.81,11.66 71.77,12.244 L67.828,13.35 Z M73.382,21.573 L71.237,13.981 L72.149,13.721 C74.31,13.112 75.498,13.973 76.262,16.662 C77.025,19.366 76.456,20.705 74.294,21.319 L73.382,21.573 Z" id="Stroke-42" stroke="#FFFFFF" stroke-width="0.223"></path>
            <path d="M86.824,16.334 L88.011,16.287 C90.839,16.182 92.246,14.991 92.16,12.821 C92.124,11.787 91.749,10.991 91.05,10.432 C90.285,9.838 89.367,9.604 87.824,9.66 L83.462,9.832 C84.259,10.346 84.353,10.557 84.416,12.198 L84.654,18.344 C84.716,19.998 84.636,20.199 83.888,20.772 L87.849,20.621 C87.031,20.108 86.96,19.912 86.894,18.256 L86.824,16.334 Z M86.761,14.787 L86.624,11.241 L87.593,11.203 C88.886,11.151 89.652,11.762 89.695,12.885 C89.734,13.983 88.988,14.703 87.709,14.754 L86.761,14.787 L86.761,14.787 Z" id="Fill-43" fill="#FFFFFF"></path>
            <path d="M86.824,16.334 L88.011,16.287 C90.839,16.182 92.246,14.991 92.16,12.821 C92.124,11.787 91.749,10.991 91.05,10.432 C90.285,9.838 89.367,9.604 87.824,9.66 L83.462,9.832 C84.259,10.346 84.353,10.557 84.416,12.198 L84.654,18.344 C84.716,19.998 84.636,20.199 83.888,20.772 L87.849,20.621 C87.031,20.108 86.96,19.912 86.894,18.256 L86.824,16.334 Z M86.761,14.787 L86.624,11.241 L87.593,11.203 C88.886,11.151 89.652,11.762 89.695,12.885 C89.734,13.983 88.988,14.703 87.709,14.754 L86.761,14.787 Z" id="Stroke-44" stroke="#FFFFFF" stroke-width="0.223"></path>
            <path d="M98.912,18.012 L99.234,19.629 C99.316,20.053 99.335,20.291 99.312,20.514 C99.273,20.86 99.144,20.994 98.718,21.237 L102.589,21.719 C102.046,21.17 101.816,20.674 101.542,19.498 L99.874,12.285 C99.685,11.44 99.64,11.215 99.677,10.951 C99.701,10.741 99.785,10.623 100.109,10.375 L96.187,9.893 C96.386,10.119 96.449,10.305 96.421,10.532 C96.384,10.85 96.199,11.369 95.956,11.803 L92.312,18.592 C91.769,19.635 91.527,19.889 90.767,20.258 L94.66,20.737 C94.277,20.475 94.152,20.291 94.189,20.03 L94.195,19.998 C94.238,19.756 94.378,19.326 94.515,19.045 L95.226,17.559 L98.912,18.012 Z M98.624,16.387 L95.912,16.057 L97.824,12.034 L98.624,16.387 L98.624,16.387 Z" id="Fill-45" fill="#FFFFFF"></path>
            <path d="M98.912,18.012 L99.234,19.629 C99.316,20.053 99.335,20.291 99.312,20.514 C99.273,20.86 99.144,20.994 98.718,21.237 L102.589,21.719 C102.046,21.17 101.816,20.674 101.542,19.498 L99.874,12.285 C99.685,11.44 99.64,11.215 99.677,10.951 C99.701,10.741 99.785,10.623 100.109,10.375 L96.187,9.893 C96.386,10.119 96.449,10.305 96.421,10.532 C96.384,10.85 96.199,11.369 95.956,11.803 L92.312,18.592 C91.769,19.635 91.527,19.889 90.767,20.258 L94.66,20.737 C94.277,20.475 94.152,20.291 94.189,20.03 L94.195,19.998 C94.238,19.756 94.378,19.326 94.515,19.045 L95.226,17.559 L98.912,18.012 Z M98.624,16.387 L95.912,16.057 L97.824,12.034 L98.624,16.387 Z" id="Stroke-46" stroke="#FFFFFF" stroke-width="0.223"></path>
            <path d="M119.689,26.389 C119.796,27.256 120.222,28.561 120.632,29.354 C120.75,29.569 120.843,29.713 121.062,30.067 L117.734,28.217 L116.878,21.522 L115.402,24.186 C114.601,25.635 114.562,25.842 114.996,26.701 L111.523,24.784 C112.464,24.68 112.636,24.555 113.441,23.1 L116.417,17.719 C117.214,16.28 117.246,16.053 116.826,15.201 L120.302,17.123 C119.339,17.213 119.179,17.366 118.386,18.807 L117.343,20.69 L121.558,19.196 C121.998,19.045 122.248,18.877 122.347,18.709 C122.41,18.578 122.441,18.461 122.398,18.287 L125.949,20.252 C125.044,20.17 124.343,20.266 123.214,20.616 L119.078,21.897 L119.689,26.389" id="Fill-47" fill="#FFFFFF"></path>
            <path d="M119.689,26.389 C119.796,27.256 120.222,28.561 120.632,29.354 C120.75,29.569 120.843,29.713 121.062,30.067 L117.734,28.217 L116.878,21.522 L115.402,24.186 C114.601,25.635 114.562,25.842 114.996,26.701 L111.523,24.784 C112.464,24.68 112.636,24.555 113.441,23.1 L116.417,17.719 C117.214,16.28 117.246,16.053 116.826,15.201 L120.302,17.123 C119.339,17.213 119.179,17.366 118.386,18.807 L117.343,20.69 L121.558,19.196 C121.998,19.045 122.248,18.877 122.347,18.709 C122.41,18.578 122.441,18.461 122.398,18.287 L125.949,20.252 C125.044,20.17 124.343,20.266 123.214,20.616 L119.078,21.897 L119.689,26.389 Z" id="Stroke-48" stroke="#FFFFFF" stroke-width="0.223"></path>
            <path d="M121.046,30.383 C121.998,30.42 122.187,30.319 123.191,29 L126.929,24.116 C127.921,22.811 127.984,22.584 127.699,21.686 L130.855,24.096 C129.89,24.041 129.71,24.172 128.707,25.479 L124.98,30.354 C123.964,31.682 123.904,31.881 124.199,32.799 L121.046,30.383" id="Fill-49" fill="#FFFFFF"></path>
            <path d="M121.046,30.383 C121.998,30.42 122.187,30.319 123.191,29 L126.929,24.116 C127.921,22.811 127.984,22.584 127.699,21.686 L130.855,24.096 C129.89,24.041 129.71,24.172 128.707,25.479 L124.98,30.354 C123.964,31.682 123.904,31.881 124.199,32.799 L121.046,30.383 Z" id="Stroke-50" stroke="#FFFFFF" stroke-width="0.223"></path>
            <path d="M133.517,36.877 L136.964,33.637 C138.113,32.557 138.351,32.09 138.238,31.156 L140.878,33.959 C139.941,33.682 139.605,33.83 138.298,35.065 L133.83,39.264 C132.921,40.117 132.656,40.746 132.898,41.459 L130.773,39.199 L132.933,30.434 L129.007,34.123 C128.125,34.963 127.914,35.416 128.029,36.28 L125.458,33.551 C126.269,33.713 126.828,33.498 127.667,32.707 L132.476,28.178 C133.287,27.428 133.539,26.858 133.439,26.057 L135.695,28.455 L133.517,36.877" id="Fill-51" fill="#FFFFFF"></path>
            <path d="M133.517,36.877 L136.964,33.637 C138.113,32.557 138.351,32.09 138.238,31.156 L140.878,33.959 C139.941,33.682 139.605,33.83 138.298,35.065 L133.83,39.264 C132.921,40.117 132.656,40.746 132.898,41.459 L130.773,39.199 L132.933,30.434 L129.007,34.123 C128.125,34.963 127.914,35.416 128.029,36.28 L125.458,33.551 C126.269,33.713 126.828,33.498 127.667,32.707 L132.476,28.178 C133.287,27.428 133.539,26.858 133.439,26.057 L135.695,28.455 L133.517,36.877 Z" id="Stroke-52" stroke="#FFFFFF" stroke-width="0.223"></path>
            <path d="M143.335,46.309 L139.771,48.487 C138.785,49.088 138.562,49.346 138.4,49.991 C138.363,49.895 138.304,49.803 138.281,49.758 C138.207,49.645 138.072,49.487 137.933,49.35 L137.601,49 C137.13,48.516 136.548,47.784 136.207,47.227 C134.451,44.35 135.234,41.348 138.207,39.526 C141.046,37.797 144.218,38.487 145.875,41.182 C145.925,41.272 146.007,41.44 146.132,41.674 C146.246,41.862 146.304,41.991 146.345,42.084 L146.539,42.491 C146.566,42.573 146.613,42.647 146.652,42.721 C146.849,43.045 146.988,43.147 147.335,43.237 L144.707,44.991 L144.773,44.809 C145.109,43.91 145.037,43.188 144.492,42.307 C143.445,40.578 141.603,40.354 139.439,41.67 C137.324,42.963 136.664,44.721 137.679,46.381 C137.798,46.576 137.863,46.655 138.056,46.909 L140.785,45.233 C140.746,45.155 140.705,45.084 140.679,45.061 C140.417,44.612 140.148,44.397 139.726,44.285 L141.519,43.33 L143.335,46.309" id="Fill-53" fill="#FFFFFF"></path>
            <path d="M143.335,46.309 L139.771,48.487 C138.785,49.088 138.562,49.346 138.4,49.991 C138.363,49.895 138.304,49.803 138.281,49.758 C138.207,49.645 138.072,49.487 137.933,49.35 L137.601,49 C137.13,48.516 136.548,47.784 136.207,47.227 C134.451,44.35 135.234,41.348 138.207,39.526 C141.046,37.797 144.218,38.487 145.875,41.182 C145.925,41.272 146.007,41.44 146.132,41.674 C146.246,41.862 146.304,41.991 146.345,42.084 L146.539,42.491 C146.566,42.573 146.613,42.647 146.652,42.721 C146.849,43.045 146.988,43.147 147.335,43.237 L144.707,44.991 L144.773,44.809 C145.109,43.91 145.037,43.188 144.492,42.307 C143.445,40.578 141.603,40.354 139.439,41.67 C137.324,42.963 136.664,44.721 137.679,46.381 C137.798,46.576 137.863,46.655 138.056,46.909 L140.785,45.233 C140.746,45.155 140.705,45.084 140.679,45.061 C140.417,44.612 140.148,44.397 139.726,44.285 L141.519,43.33 L143.335,46.309 Z" id="Stroke-54" stroke="#FFFFFF" stroke-width="0.223"></path>
            <path d="M35.952,52.514 L36.377,51.574 C36.377,51.574 40.816,50.35 41.282,50.547 C41.45,50.623 41.548,50.725 41.714,50.967 L43.341,47.209 C42.592,48.186 36.623,49.237 36.623,49.237 C36.811,47.647 36.25,46.621 35.073,46.108 C34.232,45.744 33.374,45.787 32.605,46.227 C31.836,46.678 31.347,47.352 30.685,48.877 L28.954,52.862 C29.768,52.354 29.99,52.373 31.503,53.034 L37.142,55.479 C38.666,56.135 38.812,56.278 38.999,57.217 L40.578,53.58 C39.771,54.076 39.557,54.076 38.033,53.416 L35.952,52.514 Z M34.515,51.893 L31.593,50.619 L31.941,49.83 C32.509,48.516 33.318,48.057 34.265,48.469 C35.186,48.873 35.415,49.83 34.873,51.073 L34.515,51.893 L34.515,51.893 Z" id="Fill-55" fill="#FFFFFF"></path>
            <path d="M35.952,52.514 L36.377,51.574 C36.377,51.574 40.816,50.35 41.282,50.547 C41.45,50.623 41.548,50.725 41.714,50.967 L43.341,47.209 C42.592,48.186 36.623,49.237 36.623,49.237 C36.811,47.647 36.25,46.621 35.073,46.108 C34.232,45.744 33.374,45.787 32.605,46.227 C31.836,46.678 31.347,47.352 30.685,48.877 L28.954,52.862 C29.768,52.354 29.99,52.373 31.503,53.034 L37.142,55.479 C38.666,56.135 38.812,56.278 38.999,57.217 L40.578,53.58 C39.771,54.076 39.557,54.076 38.033,53.416 L35.952,52.514 Z M34.515,51.893 L31.593,50.619 L31.941,49.83 C32.509,48.516 33.318,48.057 34.265,48.469 C35.186,48.873 35.415,49.83 34.873,51.073 L34.515,51.893 Z" id="Stroke-56" stroke="#FFFFFF" stroke-width="0.223"></path>
            <path d="M106.367,18.131 L107.335,18.491 C107.335,18.491 108.861,22.834 108.687,23.315 C108.626,23.491 108.535,23.592 108.308,23.772 L112.16,25.139 C111.136,24.455 109.675,18.571 109.675,18.571 C111.279,18.651 112.261,18.024 112.689,16.819 C113.003,15.951 112.902,15.09 112.412,14.362 C111.902,13.621 111.203,13.182 109.638,12.623 L105.539,11.172 C106.105,11.951 106.105,12.174 105.554,13.721 L103.492,19.518 C102.941,21.084 102.816,21.246 101.882,21.492 L105.621,22.819 C105.078,22.045 105.054,21.834 105.609,20.268 L106.367,18.131 Z M106.894,16.659 L107.949,13.651 L108.769,13.94 C110.117,14.42 110.63,15.198 110.287,16.172 C109.951,17.116 109.007,17.405 107.738,16.959 L106.894,16.659 L106.894,16.659 Z" id="Fill-57" fill="#FFFFFF"></path>
            <path d="M106.367,18.131 L107.335,18.491 C107.335,18.491 108.861,22.834 108.687,23.315 C108.626,23.491 108.535,23.592 108.308,23.772 L112.16,25.139 C111.136,24.455 109.675,18.571 109.675,18.571 C111.279,18.651 112.261,18.024 112.689,16.819 C113.003,15.951 112.902,15.09 112.412,14.362 C111.902,13.621 111.203,13.182 109.638,12.623 L105.539,11.172 C106.105,11.951 106.105,12.174 105.554,13.721 L103.492,19.518 C102.941,21.084 102.816,21.246 101.882,21.492 L105.621,22.819 C105.078,22.045 105.054,21.834 105.609,20.268 L106.367,18.131 Z M106.894,16.659 L107.949,13.651 L108.769,13.94 C110.117,14.42 110.63,15.198 110.287,16.172 C109.951,17.116 109.007,17.405 107.738,16.959 L106.894,16.659 Z" id="Stroke-58" stroke="#FFFFFF" stroke-width="0.223"></path>
            <path d="M26.483,121.852 C26.622,120.424 26.965,117.252 26.844,117.043 C26.638,116.678 25.508,121.701 25.043,120.979 C24.303,119.834 24.843,115.487 24.718,116.612 C24.588,117.733 23.396,120.416 23.396,120.416 C23.396,120.416 22.756,120.334 22.675,119.635 C22.629,119.244 22.644,117.924 22.666,116.838 C22.688,115.977 22.708,115.282 22.708,115.282 C22.708,115.282 22.323,116.442 21.935,117.576 C21.748,118.119 21.397,119.073 21.067,119.211 C20.734,119.352 20.542,119.248 20.24,118.746 C19.934,118.248 20.138,113.99 20.138,113.99 C20.138,113.99 19.622,115.725 18.727,117.237 C18.501,117.619 18.29,117.881 18.075,118.03 C17.89,117.936 17.641,117.737 17.597,117.33 C17.57,117.055 17.566,116.35 17.572,115.584 C17.679,114.664 17.763,113.674 17.646,112.983 C17.641,112.998 17.637,113.018 17.629,113.033 C17.631,112.998 17.631,112.969 17.631,112.969 C17.631,112.969 17.589,113.108 17.515,113.323 C16.95,114.674 16.092,116.002 15.427,116.928 C15.341,116.823 15.252,116.666 15.162,116.432 C14.81,115.541 15.06,111.678 15.06,111.678 C15.06,111.678 14.548,113.412 13.651,114.924 C13.196,115.686 12.777,115.992 12.399,115.776 C12.021,115.557 12.834,112.287 12.571,110.672 C11.589,113.28 9.343,115.532 9.343,115.532 C9.343,115.532 12.93,117.674 16.983,119.479 C19.364,120.535 25.489,122.944 26.528,123.076 C26.528,123.076 26.432,122.35 26.483,121.852" id="Fill-59" fill="#FFFFFF"></path>
            <path d="M45.649,99.346 L47.962,101.449 C48.531,101.014 49.152,100.545 49.819,100.049 L46.434,98.834 C46.175,99.006 45.91,99.174 45.649,99.346" id="Fill-60" fill="#FFFFFF"></path>
            <path d="M43.247,100.916 L45.872,103.19 C46.312,102.785 46.872,102.315 47.523,101.791 L43.82,100.537 C43.628,100.662 43.439,100.783 43.247,100.916" id="Fill-61" fill="#FFFFFF"></path>
            <path d="M40.911,102.459 L44.033,105.149 C44.439,104.662 44.893,104.162 45.399,103.643 C45.411,103.629 45.434,103.61 45.443,103.6 L41.273,102.221 C41.151,102.301 41.032,102.381 40.911,102.459" id="Fill-62" fill="#FFFFFF"></path>
            <path d="M50.615,96.151 L52.428,98.188 C53.182,97.658 53.978,97.108 54.787,96.565 L51.88,95.352 C51.471,95.612 51.048,95.875 50.615,96.151" id="Fill-63" fill="#FFFFFF"></path>
            <path d="M38.491,104.092 L42.407,107.307 C42.77,106.76 43.188,106.186 43.685,105.571 L38.622,104.008 C38.578,104.033 38.536,104.065 38.491,104.092" id="Fill-64" fill="#FFFFFF"></path>
            <path d="M48.125,97.744 L50.172,99.791 C50.813,99.33 51.485,98.85 52.198,98.356 L49.108,97.108 C48.786,97.323 48.457,97.533 48.125,97.744" id="Fill-65" fill="#FFFFFF"></path>
            <path d="M54.77,93.53 C54.584,93.651 54.39,93.768 54.198,93.883 C53.903,94.069 53.592,94.268 53.274,94.467 L54.903,96.487 C55.757,95.91 56.629,95.326 57.512,94.744 L54.77,93.53" id="Fill-66" fill="#FFFFFF"></path>
            <path d="M41.1,109.615 C41.373,109.022 41.73,108.346 42.211,107.596 C42.211,107.596 37.339,105.061 36.144,105.922 C38.626,106.776 41.1,109.615 41.1,109.615" id="Fill-67" fill="#FFFFFF"></path>
            <path d="M34.012,107.617 C35.438,107.924 36.05,108.34 36.577,108.541 C35.371,107.971 32.431,108.448 31.261,109.737 C31.253,109.748 31.231,109.756 31.218,109.76 C37.902,107.67 40.271,112.123 40.271,112.123 C40.271,112.123 40.363,111.194 41.085,109.639 C40.344,109.168 38.005,106.877 34.012,107.617" id="Fill-68" fill="#FFFFFF"></path>
            <path d="M64.972,88.67 C64.091,89.01 63.135,89.389 62.148,89.811 L62.808,90.85 L61.39,90.139 C60.622,90.475 59.832,90.842 59.041,91.217 L60.09,92.809 L57.939,91.776 C57.315,92.094 56.7,92.426 56.087,92.768 L57.512,94.744 C62.516,91.44 67.363,88.83 71.288,87.049 C71.288,87.049 68.389,87.391 65.285,88.555 L65.527,88.967 L64.972,88.67" id="Fill-69" fill="#FFFFFF"></path>
            <path d="M100.335,93.846 L98.062,98.698 L97.919,95.352 L95.634,100.205 L95.543,96.813 L93.128,101.729 L93.167,98.256 L90.515,103.303 L90.802,99.658 L87.855,104.848 L88.248,101.115 L85.076,106.412 L85.603,102.569 L82.175,107.983 L83.133,103.807 C83.133,103.807 81.369,106.717 80.558,107.908 C79.759,109.08 77.634,111.584 77.634,111.584 L100.148,98.66 C100.445,98.19 100.335,93.846 100.335,93.846" id="Fill-70" fill="#FFFFFF"></path>
            <path d="M31.404,86.256 L31.082,84.123 C30.301,84.424 29.516,84.748 28.738,85.09 L30.398,86.93 C30.735,86.705 31.072,86.483 31.404,86.256" id="Fill-71" fill="#FFFFFF"></path>
            <path d="M26.322,89.752 L25.6,86.598 C25.464,86.67 25.339,86.741 25.207,86.815 C24.628,87.135 24.055,87.459 23.492,87.787 L25.397,90.405 C25.697,90.192 26.011,89.971 26.322,89.752" id="Fill-72" fill="#FFFFFF"></path>
            <path d="M28.696,88.092 L28.038,85.401 C27.306,85.733 26.588,86.082 25.896,86.44 L27.778,88.729 C28.082,88.518 28.387,88.303 28.696,88.092" id="Fill-73" fill="#FFFFFF"></path>
            <path d="M15.857,99.908 C15.889,99.848 15.913,99.791 15.938,99.74 L14.752,93.987 L17.037,97.881 C17.214,97.635 17.398,97.377 17.599,97.104 L16.924,92.42 L18.896,95.6 C19.155,95.33 19.426,95.061 19.721,94.787 C19.729,94.784 19.736,94.776 19.739,94.764 L19.09,90.823 L20.927,93.76 C21.211,93.537 21.524,93.28 21.871,93.018 L21.217,89.221 L23.102,92.088 C23.414,91.858 23.728,91.619 24.065,91.377 L23.392,87.85 C15.156,92.7 9.623,97.873 8.834,99.147 C11.08,98.576 12.644,99.381 13.59,100.573 C13.16,98.869 12.57,96.36 12.57,96.36 L15.857,99.908" id="Fill-74" fill="#FFFFFF"></path>
            <path d="M33.953,84.606 L33.675,83.16 C33.024,83.391 32.343,83.635 31.653,83.897 L33.134,85.123 C33.411,84.947 33.683,84.772 33.953,84.606" id="Fill-75" fill="#FFFFFF"></path>
            <path d="M36.597,82.959 L36.435,82.241 C35.94,82.393 35.412,82.565 34.853,82.752 L35.613,83.561 C35.948,83.354 36.279,83.155 36.597,82.959" id="Fill-76" fill="#FFFFFF"></path>
            <path d="M72.38,118.92 C70.888,126.725 64.396,132.764 57.881,132.422 C51.36,132.076 47.288,125.469 48.783,117.668 C50.279,109.864 56.767,103.823 63.287,104.168 C69.802,104.514 73.883,111.119 72.38,118.92" id="Fill-77" fill="#FFFFFF"></path>
            <path d="M37.779,120.221 C37.326,123.58 35.107,126.162 32.844,125.994 C30.581,125.826 29.115,122.955 29.573,119.6 C30.036,116.244 32.245,113.658 34.509,113.83 C36.777,113.998 38.241,116.862 37.779,120.221" id="Fill-78" fill="#FFFFFF"></path>
            <path d="M9.435,109.791 C8.27,112.698 5.86,114.49 4.053,113.795 C2.238,113.108 1.717,110.192 2.883,107.291 C4.049,104.385 6.457,102.6 8.27,103.289 C10.077,103.979 10.599,106.893 9.435,109.791" id="Fill-79" fill="#FFFFFF"></path>
            <path d="M101.533,66.264 C100.917,69.448 101.042,71.817 101.042,73.455 L81.068,82.885 C81.068,82.862 81.076,82.834 81.078,82.803 C81.977,76.366 87.046,67.701 91.777,65.223 C97.681,62.131 101.554,60.729 104.05,59.842 C102.832,61.284 102.119,63.229 101.533,66.264" id="Fill-80" fill="#FFFFFF"></path>
            <path d="M60.149,79.619 C61.143,78.344 62.67,77.447 64.36,77.334 C66.914,77.159 68.93,78.83 69.175,81.166 C69.175,81.166 63.928,80.323 60.149,79.619" id="Fill-81" fill="#FFFFFF"></path>
            <path d="M73.995,79.844 C73.388,75.428 69.5,72.303 64.606,72.635 C60.638,72.905 57.095,75.373 55.313,78.713 C49.244,77.584 43.748,76.764 40.46,76.196 C38.126,75.787 44.834,66.428 50.527,61.815 C52.347,60.33 58.504,60.916 63.533,61.815 C68.787,62.758 79.099,64.33 79.435,66.248 C80.282,71.072 77.152,77.049 73.995,79.844" id="Fill-82" fill="#FFFFFF"></path>
            <path d="M102.187,82.459 L103.945,89.6 C103.945,89.6 101.332,89.893 99.175,87.053 C97.347,84.651 97.449,82.145 98.451,82.557 C100.503,83.395 102.187,82.459 102.187,82.459" id="Fill-83" fill="#FFFFFF"></path>
            <path d="M143.308,82.182 C144.962,81.221 145.277,80.639 145.277,80.639 C145.277,80.639 147.152,82.639 145.41,83.951 C143.468,85.428 138.945,83.604 138.945,83.604 C138.945,83.604 141.236,83.379 143.308,82.182" id="Fill-84" fill="#FFFFFF"></path>
            <path d="M149,67.91 C148.933,60.295 143.031,55.073 135.105,54.272 C136.144,56.682 137.332,59.703 138.136,62.252 C140.328,63.233 141.679,65.369 141.933,67.889 C142.218,70.733 141,73.328 139.339,74.459 C139.312,77.344 139.41,79.594 139.019,82.125 C145.074,80.963 149.062,74.072 149,67.91" id="Fill-85" fill="#FFFFFF"></path>
            <path d="M139.652,89.338 C138.128,86.17 137.798,82.113 137.367,73.526 C137.279,68.284 136.324,63.28 134.66,58.596 C132.337,54.885 125.783,56.229 119.216,54.823 C114.091,56.701 109.972,60.43 108.734,67.371 C107.917,71.961 108.464,75.073 106.91,78.662 C106.226,80.252 104.767,81.616 103.843,82.072 C103.843,82.072 105.246,87.803 105.652,89.217 C108.429,88.627 112.375,85.696 113.742,82.016 C115.296,77.842 115.05,74.33 114.914,72.838 C114.882,72.403 114.847,72.096 114.925,72.022 C115.001,71.953 115.201,72.18 115.296,72.85 C115.5,74.143 116.128,77.459 116.98,78.276 C116.783,78.356 115.96,77.571 115.703,77.213 C116.066,78.619 116.582,79.735 117.5,80.967 C117.062,81.022 116.261,80.561 115.978,79.944 C116.351,81.131 117.072,82.442 117.841,83.26 C117.841,83.26 116.796,83.401 115.912,81.791 C116.382,83.385 117.041,84.168 118.468,85.319 C117.148,85.688 115.998,84.67 115.998,84.67 C115.998,84.67 117.117,87.034 119.097,88.19 C117.158,88.19 116.242,87.03 116.242,87.03 C116.242,87.03 117.158,89.481 119.617,90.711 C117.5,90.873 116.271,89.854 116.271,89.854 C116.271,89.854 117.46,92.426 120.019,93.682 C117.5,94.106 116.443,92.139 116.443,92.139 C116.443,92.139 117.023,95.338 121.222,96.549 C119.201,97.24 116.818,96.182 116.818,96.182 C116.818,96.182 117.601,98.453 121.562,98.612 C121.562,98.612 120.46,99.108 117.21,98.471 C117.136,98.467 116.888,98.416 116.923,98.463 C119.269,100.42 126.933,99.071 130.847,97.448 C134.996,97.229 140.382,90.862 139.652,89.338" id="Fill-86" fill="#FFFFFF"></path>
            <path d="M142.316,79.272 C142.316,79.866 141.839,80.342 141.248,80.342 C140.652,80.342 140.179,79.866 140.179,79.272 C140.179,78.686 140.652,78.205 141.248,78.205 C141.839,78.205 142.316,78.686 142.316,79.272" id="Fill-87" fill="#1A1918"></path>
            <path d="M120.685,59.639 C118.359,63.409 121.072,72.873 123.042,76.682 C122.968,69.744 125.583,63.244 127.832,58.883 L130.382,59.662 L131.343,53.936 C132.476,56.405 133.707,59.742 134.406,62.244 C130.152,63.797 124.847,69.785 123.285,77.656 C122.996,77.502 122.507,76.983 122.507,76.983 C118.488,71.873 114.056,62.713 114.921,59.711 C115.351,58.26 117.648,56.893 119.621,55.561 L120.685,59.639" id="Fill-88" fill="#1A1918"></path>
            <path d="M129.751,97.354 C124.919,96.125 123.298,86.217 123.316,80.502 C122.453,86.393 123.214,97.311 128.062,98.067 C129.136,98.233 130.503,97.887 131.835,97.287 C131.113,97.479 130.408,97.522 129.751,97.354" id="Fill-89" fill="#1A1918"></path>
            <path d="M127.777,87.489 C127.777,88.1 127.273,88.596 126.664,88.596 C126.054,88.596 125.55,88.1 125.55,87.489 C125.55,86.869 126.054,86.375 126.664,86.375 C127.273,86.375 127.777,86.869 127.777,87.489" id="Fill-90" fill="#1A1918"></path>
            <path d="M129.353,92.987 C129.353,93.606 128.863,94.104 128.242,94.104 C127.634,94.104 127.136,93.606 127.136,92.987 C127.136,92.377 127.634,91.877 128.242,91.877 C128.863,91.877 129.353,92.377 129.353,92.987" id="Fill-91" fill="#1A1918"></path>
            <path d="M108.144,86.844 C108.144,87.432 107.671,87.912 107.082,87.912 C106.484,87.912 106.011,87.432 106.011,86.844 C106.011,86.252 106.484,85.78 107.082,85.78 C107.671,85.78 108.144,86.252 108.144,86.844" id="Fill-92" fill="#1A1918"></path>
            <path d="M67.455,118.35 C66.886,123.049 63.393,126.873 59.652,126.883 C55.911,126.889 53.344,123.086 53.919,118.381 C54.486,113.678 57.979,109.854 61.712,109.842 C65.455,109.838 68.022,113.643 67.455,118.35" id="Fill-93" fill="#88191F"></path>
            <polyline id="Fill-94" fill="#FFFFFF" points="63.409 123.944 60.598 121.131 56.955 123.276 58.866 119.385 56.054 116.573 60.043 116.99 61.95 113.102 62.512 117.244 66.495 117.651 62.854 119.795 63.409 123.944"></polyline>
            <polyline id="Fill-108" fill="#88191F" points="120.615 54.932 125.746 56.547 130.353 53.678 129.546 58.479 125.617 57.373 121.582 58.924 120.615 54.932"></polyline>
        </g>
    </g>
</svg>